<svg width="1254" height="218" viewBox="0 0 1254 218" fill="none" xmlns="http://www.w3.org/2000/svg">
<ellipse cx="102.027" cy="98.5108" rx="100.932" ry="98.5108" fill="url(#paint0_linear_128_33)"/>
<path d="M119.531 99.2557C112.553 105.087 108.942 110.014 107.613 117.505V170.206C115.01 170.337 118.346 169.826 124.337 168.908L124.373 168.902C132.04 166.948 136.901 165.198 144.671 159.964C153.122 154.523 157.575 150.38 164.596 139.479C169.001 131.715 171.069 126.623 173.721 115.643C174.851 108.297 175.839 104.33 176.142 90.5033C165.487 87.616 158.833 86.3587 147.278 87.5238C136.967 88.887 131.819 90.0993 119.531 99.2557Z" fill="url(#paint1_linear_128_33)"/>
<path fill-rule="evenodd" clip-rule="evenodd" d="M101.654 95.3454L108.917 94.0418C113.302 92.4379 115.711 91.0458 119.904 87.5241C123.019 84.4582 124.843 82.5681 126.98 78.7717C128.812 75.4939 129.412 73.609 130.332 69.4607C130.789 66.9968 130.915 65.5522 131.077 62.9429C131.286 60.0573 131.256 58.6289 131.077 56.239C130.641 52.6959 130.282 51.0031 129.401 48.6039C128.251 45.0513 127.445 43.1277 125.677 39.8515L121.58 33.1476L116.179 26.4436L110.779 21.0432L102.027 13.4082L101.654 95.3454ZM101.654 95.3454L94.7638 94.0418C90.3788 92.4379 87.9697 91.0458 83.7767 87.5241C80.6616 84.4582 78.8372 82.5681 76.7004 78.7717C74.8683 75.4939 74.2681 73.609 73.3484 69.4607C72.8914 66.9968 72.7659 65.5522 72.6035 62.9429C72.3941 60.0573 72.4249 58.6289 72.6035 56.239C73.0393 52.6959 73.3985 51.0031 74.2795 48.6039C75.429 45.0514 76.2351 43.1277 78.0039 39.8516L82.1008 33.1476L87.5012 26.4437L92.9016 21.0433L102.026 13.4082L101.654 95.3454Z" fill="url(#paint2_linear_128_33)"/>
<path d="M84.5217 113.036C92.0838 119.37 94.7875 122.954 97.3709 129.982V169.275L91.2256 169.275L90.9763 169.272C87.8728 169.237 85.8928 169.215 82.8457 168.902C76.1399 168.296 72.336 167.101 64.4098 162.943C56.3406 159.057 52.1278 155.478 45.2291 147.673C39.9025 141.207 36.8559 137.32 33.6834 128.12C31.2666 122.116 30.7497 117.986 29.5865 110.243C34.3404 107.533 37.1596 106.355 42.622 105.215C49.5758 103.659 53.8396 103.543 61.989 104.47C70.6091 105.551 75.5524 107.697 84.5217 113.036Z" fill="url(#paint3_linear_128_33)"/>
<path d="M99.9408 43.7C99.3448 43.9483 98.451 44.7428 97.9544 45.5374C97.1102 46.8285 97.0605 49.3611 96.9116 89.8827C96.8619 113.52 96.8122 136.165 96.8122 140.187V147.586L92.7402 144.706C80.2262 135.917 77.9915 134.576 75.9059 134.576C73.0753 134.576 70.493 137.108 70.493 139.889C70.493 140.932 70.8406 142.273 71.2379 142.869C71.6848 143.465 75.9555 146.544 80.8221 149.771C89.1648 155.234 96.266 160.249 96.8122 160.945C96.9612 161.143 97.0109 167.698 96.9116 175.495L96.7626 189.697H94.0313C92.5416 189.697 91.3994 189.498 91.5484 189.25C91.747 189.002 91.4491 188.903 90.9028 189.052C89.4627 189.399 82.1629 187.909 75.9059 185.923C69.3509 183.837 60.9585 180.063 55.5954 176.786C53.5594 175.544 51.3247 174.154 50.6295 173.757C47.9479 172.217 42.2371 167.649 38.4134 164.023C25.6511 151.807 16.7125 135.966 13.1867 119.231C10.3561 106.022 10.3561 94.0541 13.137 80.6958C14.5275 74.1409 14.4282 72.7008 12.5908 70.9627C10.6541 69.1253 7.67454 69.324 5.98614 71.36C1.71548 76.4748 -1.11508 96.6363 0.424346 110.988C2.75831 132.242 12.6404 153.247 27.7864 169.039C36.576 178.176 46.3092 185.277 57.83 190.889C83.4043 203.403 110.766 204.843 137.036 195.06C174.528 181.106 199.308 150.119 204.125 111.037C204.87 104.631 204.473 90.0317 203.331 84.6686C202.288 79.7523 200.252 73.1477 199.259 71.7076C198.166 69.9695 195.584 69.324 193.548 70.1682C190.171 71.6083 190.022 72.8994 192.207 83.9237C193.746 91.6208 193.846 106.916 192.455 114.464C187.787 139.74 174.826 159.405 152.927 174.402C141.704 182.099 125.316 188.158 111.809 189.598L108.383 189.995L108.085 186.42C107.936 184.433 107.787 178.871 107.737 174.055L107.688 165.215L119.01 154.29C137.235 136.612 162.511 111.584 163.454 110.243C163.951 109.548 164.348 108.157 164.348 107.065C164.348 105.575 164.001 104.83 162.66 103.489C161.269 102.099 160.574 101.801 158.886 101.801C156.8 101.801 156.701 101.9 143.293 115.358C135.894 122.807 124.919 133.732 118.91 139.591L107.985 150.218L107.737 98.4737L107.489 46.6795L105.999 45.1897C104.36 43.551 101.778 42.9054 99.9408 43.7Z" fill="#17505C"/>
<path d="M324.712 59.8C328.766 63.5333 331.752 68.0133 333.672 73.24C335.592 78.36 336.339 83.48 335.912 88.6C335.486 93.5067 333.939 98.04 331.272 102.2C328.606 106.253 324.552 109.347 319.112 111.48C314.846 113.293 310.632 114.573 306.472 115.32C302.312 116.067 297.726 116.653 292.712 117.08C290.472 117.293 288.552 117.453 286.952 117.56C285.459 117.56 283.699 117.613 281.672 117.72C281.246 117.72 280.499 117.72 279.432 117.72C278.472 117.72 277.779 117.773 277.352 117.88V151C277.032 153.027 276.606 155.107 276.072 157.24C275.646 159.373 274.419 161.027 272.392 162.2C271.219 162.84 269.779 163.213 268.072 163.32C266.366 163.427 264.819 163.373 263.432 163.16C261.939 162.947 260.659 162.573 259.592 162.04C258.632 161.4 257.832 160.333 257.192 158.84C256.766 157.88 256.339 156.813 255.912 155.64C255.592 154.36 255.432 152.813 255.432 151V62.52C255.432 61.7733 255.486 61.08 255.592 60.44C255.699 59.8 255.806 59.16 255.912 58.52C256.126 57.9867 256.286 57.4 256.392 56.76C256.499 56.12 256.659 55.5333 256.872 55C257.086 54.4667 257.299 53.9867 257.512 53.56C257.832 53.1333 258.206 52.76 258.632 52.44C259.166 51.9067 259.966 51.4267 261.032 51C262.206 50.5733 263.912 50.36 266.152 50.36H266.472C269.779 50.1467 273.459 49.9867 277.512 49.88C281.566 49.6667 284.926 49.72 287.592 50.04C289.086 50.2533 290.472 50.4133 291.752 50.52C293.032 50.52 294.259 50.5733 295.432 50.68C296.712 50.7867 297.992 50.8933 299.272 51C300.552 51.1067 301.832 51.2667 303.112 51.48C304.179 51.6933 305.139 51.8533 305.992 51.96C306.952 52.0667 307.912 52.2267 308.872 52.44C309.726 52.6533 310.632 52.8667 311.592 53.08C312.659 53.2933 313.619 53.6667 314.472 54.2C316.712 54.84 318.579 55.64 320.072 56.6C321.566 57.56 323.112 58.6267 324.712 59.8ZM315.112 86.2C315.219 83.64 314.686 81.4 313.512 79.48C312.446 77.56 310.899 75.96 308.872 74.68C306.846 73.4 304.552 72.3867 301.992 71.64C299.432 70.8933 296.872 70.36 294.312 70.04C293.672 70.04 292.766 70.04 291.592 70.04C290.526 69.9333 289.352 69.88 288.072 69.88C286.792 69.7733 285.566 69.72 284.392 69.72C283.326 69.6133 282.472 69.56 281.832 69.56C281.299 69.4533 280.659 69.4 279.912 69.4C279.166 69.4 278.312 69.4 277.352 69.4C277.459 72.7067 277.512 75.9067 277.512 79C277.512 81.9867 277.512 85.24 277.512 88.76C277.406 90.68 277.352 92.6 277.352 94.52C277.352 96.44 277.352 98.3067 277.352 100.12L287.272 99.96C289.832 99.96 292.659 99.8 295.752 99.48C298.846 99.16 301.779 98.52 304.552 97.56C307.326 96.6 309.672 95.2133 311.592 93.4C313.619 91.5867 314.792 89.1867 315.112 86.2ZM414.946 150.84C415.159 151.373 415.266 152.173 415.266 153.24C415.266 154.2 415.266 155 415.266 155.64C415.266 156.493 415.106 157.293 414.786 158.04C414.466 158.787 414.039 159.48 413.506 160.12C412.546 161.4 411.159 162.36 409.346 163C406.786 163.853 404.386 164.28 402.146 164.28C400.973 164.387 399.746 164.44 398.466 164.44C397.186 164.44 395.906 164.547 394.626 164.76H393.986C385.773 164.867 377.293 164.867 368.546 164.76C366.413 164.653 364.013 164.653 361.346 164.76C358.679 164.973 356.066 164.92 353.506 164.6C350.946 164.387 348.599 163.8 346.466 162.84C344.439 161.773 342.999 160.12 342.146 157.88C341.933 157.347 341.773 156.867 341.666 156.44C341.559 155.907 341.506 155.373 341.506 154.84C341.079 151.213 340.919 147.64 341.026 144.12C341.133 140.6 341.186 137.133 341.186 133.72L341.506 110.52V89.08C341.506 85.24 341.506 81.8267 341.506 78.84C341.613 75.8533 341.719 72.5467 341.826 68.92V68.12C341.933 67.0533 341.986 65.9867 341.986 64.92C342.093 63.8533 342.146 62.7867 342.146 61.72C342.359 59.2667 342.946 57.1867 343.906 55.48C344.546 53.88 345.666 52.6 347.266 51.64C348.653 50.68 350.306 50.2 352.226 50.2C352.973 50.2 353.666 50.2533 354.306 50.36C355.053 50.36 355.746 50.4133 356.386 50.52C357.026 50.6267 357.613 50.84 358.146 51.16C358.786 51.48 359.426 51.9067 360.066 52.44C360.706 53.1867 361.293 54.0933 361.826 55.16C362.253 56.3333 362.519 57.5067 362.626 58.68C362.733 59.4267 362.839 60.12 362.946 60.76C363.053 61.4 363.106 62.04 363.106 62.68C362.893 63.32 362.786 63.96 362.786 64.6C362.786 65.24 362.786 65.8267 362.786 66.36V69.24L362.146 144.6L393.826 144.92H401.346C401.986 144.92 402.679 144.973 403.426 145.08C404.173 145.08 404.919 145.133 405.666 145.24C406.519 145.347 407.266 145.453 407.906 145.56C408.546 145.667 409.186 145.827 409.826 146.04C410.999 146.36 411.959 146.893 412.706 147.64C413.879 148.707 414.626 149.773 414.946 150.84ZM518.777 152.12C518.884 152.76 518.937 153.4 518.937 154.04C519.044 154.573 519.097 155.213 519.097 155.96C519.097 157.24 518.724 158.413 517.977 159.48C517.657 160.013 517.231 160.547 516.697 161.08C516.164 161.507 515.524 161.88 514.777 162.2C512.111 163.693 509.284 164.227 506.297 163.8C504.804 163.373 503.471 162.68 502.297 161.72C502.084 161.507 501.924 161.4 501.817 161.4C501.711 161.293 501.604 161.133 501.497 160.92C501.391 160.813 501.284 160.707 501.177 160.6C501.071 160.387 500.911 160.227 500.697 160.12C500.164 159.587 499.737 159.107 499.417 158.68C499.097 158.147 498.777 157.613 498.457 157.08C498.244 156.547 497.977 156.067 497.657 155.64C497.444 155.107 497.177 154.573 496.857 154.04C496.644 153.613 496.431 153.24 496.217 152.92C496.004 152.493 495.844 152.067 495.737 151.64C495.311 150.68 495.044 149.827 494.937 149.08L491.577 141.24C484.217 141.24 476.857 141.293 469.497 141.4C462.244 141.4 454.937 141.347 447.577 141.24L444.217 149.08C444.004 149.507 443.844 149.933 443.737 150.36C443.737 150.787 443.631 151.213 443.417 151.64C443.204 152.067 442.991 152.493 442.777 152.92C442.671 153.24 442.511 153.613 442.297 154.04C441.977 154.573 441.657 155.107 441.337 155.64C441.124 156.067 440.857 156.547 440.537 157.08C440.324 157.613 440.057 158.147 439.737 158.68C439.417 159.107 438.991 159.587 438.457 160.12C438.244 160.227 438.084 160.387 437.977 160.6C437.871 160.707 437.764 160.813 437.657 160.92C437.551 161.133 437.444 161.293 437.337 161.4C437.231 161.4 437.071 161.507 436.857 161.72C435.684 162.68 434.351 163.373 432.857 163.8C429.871 164.227 427.044 163.693 424.377 162.2C423.631 161.88 422.991 161.507 422.457 161.08C421.924 160.547 421.497 160.013 421.177 159.48C420.431 158.413 420.057 157.24 420.057 155.96C420.057 155.213 420.057 154.573 420.057 154.04C420.164 153.4 420.271 152.76 420.377 152.12C420.591 151.16 420.857 150.2 421.177 149.24C421.497 148.28 421.657 147.8 421.657 147.8L454.937 65.88L455.897 63.32C456.111 62.68 456.377 62.0933 456.697 61.56C457.017 61.0267 457.284 60.3867 457.497 59.64C458.031 58.2533 458.617 57.0267 459.257 55.96C459.577 55.32 459.951 54.7333 460.377 54.2C460.804 53.6667 461.231 53.1333 461.657 52.6C462.297 51.7467 463.204 51.0533 464.377 50.52C465.871 49.9867 467.577 49.72 469.497 49.72C471.524 49.72 473.284 49.9867 474.777 50.52C475.951 51.0533 476.857 51.7467 477.497 52.6C478.244 53.56 479.044 54.68 479.897 55.96C480.537 57.0267 481.124 58.2533 481.657 59.64C481.871 60.3867 482.137 61.0267 482.457 61.56C482.777 62.0933 483.044 62.68 483.257 63.32L484.217 65.88L517.497 147.8C517.497 147.8 517.657 148.28 517.977 149.24C518.297 150.2 518.564 151.16 518.777 152.12ZM480.857 112.92C479.471 109.827 478.031 106.627 476.537 103.32C475.151 100.013 473.657 96.6533 472.057 93.24C471.631 92.28 471.204 91.32 470.777 90.36C470.351 89.2933 469.924 88.28 469.497 87.32C469.177 88.28 468.804 89.2933 468.377 90.36C467.951 91.32 467.524 92.28 467.097 93.24C465.497 96.6533 463.951 100.013 462.457 103.32C461.071 106.627 459.684 109.827 458.297 112.92L455.417 119.96H483.737L480.857 112.92ZM610.972 150.84C610.866 152.653 610.599 154.573 610.172 156.6C609.852 158.627 608.839 160.28 607.132 161.56C605.852 162.627 604.412 163.267 602.812 163.48C601.212 163.693 599.612 163.587 598.012 163.16C596.519 162.84 595.079 162.307 593.692 161.56C592.306 160.707 591.186 159.693 590.332 158.52C586.706 154.04 583.346 149.453 580.252 144.76C577.266 139.96 574.226 135.16 571.132 130.36L557.692 110.04C555.879 107.16 553.959 103.96 551.932 100.44C549.906 96.8133 547.826 93.4533 545.692 90.36L545.212 151.48V152.92C545.212 154.627 544.892 156.333 544.252 158.04C543.719 159.64 542.759 161.027 541.372 162.2C540.306 163.053 538.919 163.64 537.212 163.96C534.546 164.493 532.306 164.333 530.492 163.48C528.786 162.627 527.399 161.453 526.332 159.96C525.372 158.467 524.679 156.76 524.252 154.84C523.932 152.813 523.879 150.84 524.092 148.92V146.2L524.412 133.72L524.572 110.52C524.679 107.107 524.732 103.64 524.732 100.12C524.732 96.4933 524.732 92.8133 524.732 89.08C524.626 84.4933 524.626 79.64 524.732 74.52C524.946 69.4 525.159 64.6 525.372 60.12C525.586 57.6667 526.172 55.5867 527.132 53.88C527.559 52.3867 528.679 51.1067 530.492 50.04C531.666 49.2933 533.159 48.8133 534.972 48.6C536.892 48.3867 538.546 48.44 539.932 48.76C540.466 48.9733 540.999 49.24 541.532 49.56C542.066 49.7733 542.599 50.04 543.132 50.36C543.666 50.7867 544.146 51.2133 544.572 51.64C545.106 52.0667 545.586 52.5467 546.012 53.08C546.546 53.6133 547.026 54.2 547.452 54.84C547.879 55.3733 548.306 55.9067 548.732 56.44C549.052 57.08 549.372 57.6667 549.692 58.2C550.012 58.7333 550.386 59.2667 550.812 59.8L552.572 62.36L589.532 120.6V110.04C589.532 106.627 589.479 103.16 589.372 99.64C589.372 96.0133 589.319 92.28 589.212 88.44C589.212 83.96 589.212 79.16 589.212 74.04C589.319 68.92 589.479 64.12 589.692 59.64C589.692 57.8267 590.226 55.7467 591.292 53.4C591.826 52.0133 592.732 50.8933 594.012 50.04C595.292 49.1867 596.732 48.6 598.332 48.28C599.932 47.96 601.532 47.96 603.132 48.28C604.732 48.6 606.119 49.24 607.292 50.2C607.612 50.52 607.932 50.8933 608.252 51.32C608.572 51.7467 608.839 52.2267 609.052 52.76C609.586 54.1467 609.906 55.3733 610.012 56.44C610.332 57.9333 610.492 59.2667 610.492 60.44C610.492 73.7733 610.492 87.3733 610.492 101.24C610.599 115.107 610.706 128.707 610.812 142.04C610.812 143.533 610.866 145.027 610.972 146.52C611.079 147.907 611.079 149.347 610.972 150.84ZM704.252 54.68C705.426 56.0667 706.012 57.5067 706.012 59C706.012 59.64 705.959 60.3333 705.852 61.08C705.852 61.72 705.799 62.3067 705.692 62.84C705.372 64.0133 704.679 65.1333 703.612 66.2C702.759 66.84 701.586 67.32 700.092 67.64C699.346 67.8533 698.599 68.0133 697.852 68.12C697.106 68.2267 696.306 68.3867 695.452 68.6C694.706 68.7067 693.959 68.76 693.212 68.76C692.466 68.76 691.666 68.76 690.812 68.76H682.652C680.732 68.8667 678.812 68.92 676.892 68.92C675.079 68.92 673.266 68.92 671.452 68.92C671.559 72.2267 671.612 75.8 671.612 79.64C671.612 83.3733 671.559 87.7467 671.452 92.76C671.452 97.7733 671.399 103.587 671.292 110.2C671.292 116.813 671.292 124.493 671.292 133.24V145.4C671.292 146.467 671.346 147.267 671.452 147.8C671.452 148.227 671.452 148.653 671.452 149.08C671.452 149.4 671.399 149.827 671.292 150.36C671.079 151.32 670.919 152.44 670.812 153.72C670.812 154.253 670.759 154.787 670.652 155.32C670.546 155.747 670.386 156.227 670.172 156.76C669.746 157.187 669.532 157.507 669.532 157.72L669.052 158.68C668.519 159.747 667.506 160.76 666.012 161.72C663.666 162.893 661.052 163.16 658.172 162.52C656.359 162.307 654.972 161.827 654.012 161.08C653.052 160.12 652.359 159.16 651.932 158.2C651.292 157.027 650.919 155.907 650.812 154.84C650.492 153.88 650.332 152.867 650.332 151.8V69.56C649.692 69.56 648.359 69.56 646.332 69.56C644.306 69.56 642.119 69.56 639.772 69.56C637.532 69.4533 635.399 69.3467 633.372 69.24C631.346 69.1333 629.959 69.0267 629.212 68.92C628.572 68.8133 627.559 68.6533 626.172 68.44C624.892 68.2267 623.826 68.0133 622.972 67.8C620.732 67.16 618.972 66.1467 617.692 64.76C616.519 63.3733 615.932 61.8267 615.932 60.12C615.932 59.48 615.932 58.84 615.932 58.2C615.932 57.56 616.039 56.9733 616.252 56.44C616.572 55.16 617.426 54.0933 618.812 53.24C619.239 52.92 619.879 52.5467 620.732 52.12C621.692 51.5867 622.599 51.2133 623.452 51C624.732 50.5733 626.332 50.2533 628.252 50.04C629.106 49.9333 629.959 49.88 630.812 49.88C631.666 49.88 632.572 49.88 633.532 49.88C637.266 49.88 640.786 49.88 644.092 49.88C647.506 49.88 651.079 49.8267 654.812 49.72C660.999 49.6133 667.132 49.6133 673.212 49.72C679.399 49.72 685.532 49.8267 691.612 50.04C692.999 50.1467 694.332 50.3067 695.612 50.52C696.892 50.7333 698.172 51.1067 699.452 51.64C700.412 51.96 701.319 52.3867 702.172 52.92C703.026 53.3467 703.719 53.9333 704.252 54.68ZM788.185 151.48C789.038 153.08 789.092 154.68 788.345 156.28C787.812 157.987 786.905 159.267 785.625 160.12C784.985 160.653 784.398 161.133 783.865 161.56C783.332 161.88 782.745 162.147 782.105 162.36C780.932 163 779.545 163.213 777.945 163C777.305 163 776.718 162.893 776.185 162.68C775.652 162.467 775.118 162.2 774.585 161.88C774.052 161.56 773.465 161.24 772.825 160.92C772.292 160.493 771.758 160.067 771.225 159.64C770.585 159.107 769.998 158.627 769.465 158.2C768.932 157.773 768.452 157.293 768.025 156.76C767.492 156.227 767.012 155.693 766.585 155.16C766.158 154.627 765.732 154.147 765.305 153.72L763.385 151.64L732.665 119.48L733.145 151.64V153.08C733.145 153.507 733.092 153.987 732.985 154.52C732.878 154.947 732.772 155.427 732.665 155.96C732.345 157.347 731.972 158.573 731.545 159.64C731.332 160.28 731.012 160.813 730.585 161.24C730.265 161.667 729.892 162.093 729.465 162.52C728.292 163.587 726.905 164.173 725.305 164.28C723.705 164.813 722.212 164.973 720.825 164.76C719.545 164.653 718.212 164.28 716.825 163.64C715.758 163 714.798 161.933 713.945 160.44C713.732 160.013 713.572 159.747 713.465 159.64C713.465 159.533 713.358 159.16 713.145 158.52C712.505 157.453 712.185 156.387 712.185 155.32C712.078 154.68 711.972 154.093 711.865 153.56C711.865 153.027 711.812 152.44 711.705 151.8C711.598 151.373 711.545 150.947 711.545 150.52C711.545 150.093 711.545 149.667 711.545 149.24C711.652 148.707 711.705 148.28 711.705 147.96C711.705 147.533 711.705 147.053 711.705 146.52L711.545 133.88L711.385 110.36C711.385 103.533 711.225 96.1733 710.905 88.28C710.798 84.44 710.745 81.0267 710.745 78.04C710.745 75.0533 710.798 71.6933 710.905 67.96V67.32C711.118 66.1467 711.225 65.0267 711.225 63.96C711.225 62.7867 711.278 61.6667 711.385 60.6C711.385 58.4667 711.865 56.3333 712.825 54.2C713.465 52.6 714.585 51.32 716.185 50.36C717.038 49.8267 717.838 49.5067 718.585 49.4C719.438 49.1867 720.345 48.9733 721.305 48.76C722.052 48.76 722.745 48.8133 723.385 48.92C724.132 49.0267 724.825 49.1333 725.465 49.24C726.852 49.4533 728.132 50.04 729.305 51C729.625 51.32 729.892 51.6933 730.105 52.12C730.425 52.5467 730.692 53.08 730.905 53.72C731.438 54.5733 731.812 55.8 732.025 57.4C732.132 58.04 732.185 58.68 732.185 59.32C732.292 59.96 732.345 60.6533 732.345 61.4V67.96L732.505 87.48C734.212 85.9867 735.865 84.44 737.465 82.84C739.172 81.24 740.825 79.5333 742.425 77.72C745.305 74.7333 748.132 71.8533 750.905 69.08C753.785 66.2 756.665 63.3733 759.545 60.6L760.025 60.12C760.878 59.2667 761.732 58.4667 762.585 57.72C763.545 56.8667 764.452 56.0667 765.305 55.32C766.905 53.5067 768.878 52.2267 771.225 51.48C772.718 50.52 774.478 50.1467 776.505 50.36C777.465 50.4667 778.318 50.68 779.065 51C779.918 51.32 780.718 51.7467 781.465 52.28C781.998 52.8133 782.532 53.2933 783.065 53.72C783.598 54.04 784.025 54.4667 784.345 55C785.198 55.7467 785.732 56.8667 785.945 58.36C785.945 59.5333 785.732 60.6 785.305 61.56C784.985 62.0933 784.665 62.6267 784.345 63.16C784.025 63.6933 783.652 64.2267 783.225 64.76C782.692 65.4 782.212 65.9867 781.785 66.52C781.358 67.0533 780.878 67.5867 780.345 68.12C779.918 68.6533 779.438 69.1333 778.905 69.56C778.478 69.9867 778.052 70.4667 777.625 71L775.545 73.08L745.625 103.64C747.225 105.24 748.878 106.947 750.585 108.76C752.398 110.467 754.105 112.173 755.705 113.88C757.305 115.48 758.798 117.027 760.185 118.52C761.572 119.907 762.745 121.08 763.705 122.04C766.585 125.027 769.358 128.013 772.025 131C774.692 133.88 777.305 136.813 779.865 139.8L780.345 140.28C781.198 141.133 781.998 142.04 782.745 143C783.492 143.853 784.185 144.707 784.825 145.56C786.425 147.373 787.545 149.347 788.185 151.48ZM815.759 68.92L815.439 94.04H821.839C826.212 93.9333 830.105 93.88 833.519 93.88C836.932 93.88 840.719 93.9333 844.879 94.04H845.679C846.959 94.04 848.185 94.0933 849.359 94.2C850.639 94.2 851.865 94.2 853.039 94.2C854.319 94.3067 855.545 94.52 856.719 94.84C857.892 95.0533 859.065 95.32 860.239 95.64C862.052 96.28 863.545 97.24 864.719 98.52C865.785 99.9067 866.319 101.453 866.319 103.16C866.319 103.693 866.319 104.333 866.319 105.08C866.319 105.72 866.212 106.307 865.999 106.84C865.785 108.013 865.092 109.08 863.919 110.04C863.385 110.787 862.372 111.32 860.879 111.64C859.492 112.067 858.105 112.333 856.719 112.44C855.225 112.76 853.732 112.92 852.239 112.92H844.719L815.119 113.08L814.799 144.44L846.639 144.76H854.159C855.012 144.76 855.812 144.76 856.559 144.76C857.305 144.76 857.999 144.813 858.639 144.92C859.492 145.133 860.239 145.293 860.879 145.4C861.625 145.4 862.319 145.507 862.959 145.72C864.239 146.147 865.305 146.733 866.159 147.48C867.225 148.547 867.919 149.667 868.239 150.84C868.345 151.373 868.399 151.96 868.399 152.6C868.505 153.133 868.505 153.72 868.399 154.36C868.399 156.067 867.865 157.613 866.799 159C865.519 160.493 864.025 161.453 862.319 161.88C860.079 162.84 857.625 163.32 854.959 163.32C853.785 163.427 852.559 163.48 851.279 163.48C849.999 163.48 848.772 163.533 847.599 163.64H846.639C838.319 163.853 829.679 163.853 820.719 163.64C818.585 163.64 816.879 163.587 815.599 163.48C814.319 163.48 813.145 163.48 812.079 163.48C811.119 163.48 810.105 163.48 809.039 163.48C807.972 163.48 806.585 163.48 804.879 163.48C802.425 163.693 800.399 163.267 798.799 162.2C797.625 161.453 796.719 160.44 796.079 159.16C795.759 158.84 795.599 158.52 795.599 158.2C795.492 157.987 795.385 157.827 795.279 157.72C795.172 157.613 795.065 157.453 794.959 157.24C794.745 156.707 794.585 156.173 794.479 155.64C794.372 155 794.319 154.413 794.319 153.88C794.212 153.347 794.105 152.813 793.999 152.28C793.999 151.747 793.945 151.213 793.839 150.68V148.12C793.839 147.693 793.839 147.267 793.839 146.84C793.945 146.413 793.999 145.987 793.999 145.56V133.08L794.319 110.04V88.76C794.319 84.92 794.319 81.5067 794.319 78.52C794.425 75.5333 794.532 72.28 794.639 68.76V67.96C794.745 66.7867 794.799 65.72 794.799 64.76C794.905 63.6933 794.959 62.6267 794.959 61.56C795.065 59.4267 795.652 57.3467 796.719 55.32C797.145 54.4667 797.572 53.72 797.999 53.08C798.532 52.44 799.225 51.9067 800.079 51.48C801.679 50.52 803.332 50.04 805.039 50.04C805.892 50.04 806.532 50.0933 806.959 50.2V50.04C808.879 50.04 810.425 50.04 811.599 50.04C812.772 50.04 813.892 50.04 814.959 50.04C816.132 50.04 817.359 50.04 818.639 50.04C819.919 49.9333 821.679 49.88 823.919 49.88C828.185 49.7733 832.239 49.72 836.079 49.72C839.919 49.72 843.865 49.7733 847.919 49.88H848.559C849.732 49.9867 850.959 50.04 852.239 50.04C853.519 50.04 854.745 50.0933 855.919 50.2C857.092 50.2 858.265 50.36 859.439 50.68C860.612 50.8933 861.785 51.2133 862.959 51.64C864.772 52.1733 866.265 53.08 867.439 54.36C868.399 55.8533 868.879 57.3467 868.879 58.84C868.879 59.48 868.879 60.12 868.879 60.76C868.879 61.2933 868.772 61.8267 868.559 62.36C868.452 63.4267 867.812 64.5467 866.639 65.72C866.212 65.9333 865.732 66.2 865.199 66.52C864.772 66.84 864.239 67.1067 863.599 67.32C862.959 67.5333 862.265 67.6933 861.519 67.8C860.879 67.8 860.239 67.8533 859.599 67.96C858.745 68.1733 857.945 68.28 857.199 68.28C856.559 68.28 855.812 68.28 854.959 68.28H847.759L815.759 68.44V68.92ZM895.571 68.92L895.251 94.04H901.651C906.024 93.9333 909.918 93.88 913.331 93.88C916.744 93.88 920.531 93.9333 924.691 94.04H925.491C926.771 94.04 927.998 94.0933 929.171 94.2C930.451 94.2 931.678 94.2 932.851 94.2C934.131 94.3067 935.358 94.52 936.531 94.84C937.704 95.0533 938.878 95.32 940.051 95.64C941.864 96.28 943.358 97.24 944.531 98.52C945.598 99.9067 946.131 101.453 946.131 103.16C946.131 103.693 946.131 104.333 946.131 105.08C946.131 105.72 946.024 106.307 945.811 106.84C945.598 108.013 944.904 109.08 943.731 110.04C943.198 110.787 942.184 111.32 940.691 111.64C939.304 112.067 937.918 112.333 936.531 112.44C935.038 112.76 933.544 112.92 932.051 112.92H924.531L894.931 113.08L894.611 144.44L926.451 144.76H933.971C934.824 144.76 935.624 144.76 936.371 144.76C937.118 144.76 937.811 144.813 938.451 144.92C939.304 145.133 940.051 145.293 940.691 145.4C941.438 145.4 942.131 145.507 942.771 145.72C944.051 146.147 945.118 146.733 945.971 147.48C947.038 148.547 947.731 149.667 948.051 150.84C948.158 151.373 948.211 151.96 948.211 152.6C948.318 153.133 948.318 153.72 948.211 154.36C948.211 156.067 947.678 157.613 946.611 159C945.331 160.493 943.838 161.453 942.131 161.88C939.891 162.84 937.438 163.32 934.771 163.32C933.598 163.427 932.371 163.48 931.091 163.48C929.811 163.48 928.584 163.533 927.411 163.64H926.451C918.131 163.853 909.491 163.853 900.531 163.64C898.398 163.64 896.691 163.587 895.411 163.48C894.131 163.48 892.958 163.48 891.891 163.48C890.931 163.48 889.918 163.48 888.851 163.48C887.784 163.48 886.398 163.48 884.691 163.48C882.238 163.693 880.211 163.267 878.611 162.2C877.438 161.453 876.531 160.44 875.891 159.16C875.571 158.84 875.411 158.52 875.411 158.2C875.304 157.987 875.198 157.827 875.091 157.72C874.984 157.613 874.878 157.453 874.771 157.24C874.558 156.707 874.398 156.173 874.291 155.64C874.184 155 874.131 154.413 874.131 153.88C874.024 153.347 873.918 152.813 873.811 152.28C873.811 151.747 873.758 151.213 873.651 150.68V148.12C873.651 147.693 873.651 147.267 873.651 146.84C873.758 146.413 873.811 145.987 873.811 145.56V133.08L874.131 110.04V88.76C874.131 84.92 874.131 81.5067 874.131 78.52C874.238 75.5333 874.344 72.28 874.451 68.76V67.96C874.558 66.7867 874.611 65.72 874.611 64.76C874.718 63.6933 874.771 62.6267 874.771 61.56C874.878 59.4267 875.464 57.3467 876.531 55.32C876.958 54.4667 877.384 53.72 877.811 53.08C878.344 52.44 879.038 51.9067 879.891 51.48C881.491 50.52 883.144 50.04 884.851 50.04C885.704 50.04 886.344 50.0933 886.771 50.2V50.04C888.691 50.04 890.238 50.04 891.411 50.04C892.584 50.04 893.704 50.04 894.771 50.04C895.944 50.04 897.171 50.04 898.451 50.04C899.731 49.9333 901.491 49.88 903.731 49.88C907.998 49.7733 912.051 49.72 915.891 49.72C919.731 49.72 923.678 49.7733 927.731 49.88H928.371C929.544 49.9867 930.771 50.04 932.051 50.04C933.331 50.04 934.558 50.0933 935.731 50.2C936.904 50.2 938.078 50.36 939.251 50.68C940.424 50.8933 941.598 51.2133 942.771 51.64C944.584 52.1733 946.078 53.08 947.251 54.36C948.211 55.8533 948.691 57.3467 948.691 58.84C948.691 59.48 948.691 60.12 948.691 60.76C948.691 61.2933 948.584 61.8267 948.371 62.36C948.264 63.4267 947.624 64.5467 946.451 65.72C946.024 65.9333 945.544 66.2 945.011 66.52C944.584 66.84 944.051 67.1067 943.411 67.32C942.771 67.5333 942.078 67.6933 941.331 67.8C940.691 67.8 940.051 67.8533 939.411 67.96C938.558 68.1733 937.758 68.28 937.011 68.28C936.371 68.28 935.624 68.28 934.771 68.28H927.571L895.571 68.44V68.92ZM1022.74 59.8C1026.8 63.5333 1029.78 68.0133 1031.7 73.24C1033.62 78.36 1034.37 83.48 1033.94 88.6C1033.52 93.5067 1031.97 98.04 1029.3 102.2C1026.64 106.253 1022.58 109.347 1017.14 111.48C1012.88 113.293 1008.66 114.573 1004.5 115.32C1000.34 116.067 995.757 116.653 990.744 117.08C988.504 117.293 986.584 117.453 984.984 117.56C983.49 117.56 981.73 117.613 979.704 117.72C979.277 117.72 978.53 117.72 977.464 117.72C976.504 117.72 975.81 117.773 975.384 117.88V151C975.064 153.027 974.637 155.107 974.104 157.24C973.677 159.373 972.45 161.027 970.424 162.2C969.25 162.84 967.81 163.213 966.104 163.32C964.397 163.427 962.85 163.373 961.464 163.16C959.97 162.947 958.69 162.573 957.624 162.04C956.664 161.4 955.864 160.333 955.224 158.84C954.797 157.88 954.37 156.813 953.944 155.64C953.624 154.36 953.464 152.813 953.464 151V62.52C953.464 61.7733 953.517 61.08 953.624 60.44C953.73 59.8 953.837 59.16 953.944 58.52C954.157 57.9867 954.317 57.4 954.424 56.76C954.53 56.12 954.69 55.5333 954.904 55C955.117 54.4667 955.33 53.9867 955.544 53.56C955.864 53.1333 956.237 52.76 956.664 52.44C957.197 51.9067 957.997 51.4267 959.064 51C960.237 50.5733 961.944 50.36 964.184 50.36H964.504C967.81 50.1467 971.49 49.9867 975.544 49.88C979.597 49.6667 982.957 49.72 985.624 50.04C987.117 50.2533 988.504 50.4133 989.784 50.52C991.064 50.52 992.29 50.5733 993.464 50.68C994.744 50.7867 996.024 50.8933 997.304 51C998.584 51.1067 999.864 51.2667 1001.14 51.48C1002.21 51.6933 1003.17 51.8533 1004.02 51.96C1004.98 52.0667 1005.94 52.2267 1006.9 52.44C1007.76 52.6533 1008.66 52.8667 1009.62 53.08C1010.69 53.2933 1011.65 53.6667 1012.5 54.2C1014.74 54.84 1016.61 55.64 1018.1 56.6C1019.6 57.56 1021.14 58.6267 1022.74 59.8ZM1013.14 86.2C1013.25 83.64 1012.72 81.4 1011.54 79.48C1010.48 77.56 1008.93 75.96 1006.9 74.68C1004.88 73.4 1002.58 72.3867 1000.02 71.64C997.464 70.8933 994.904 70.36 992.344 70.04C991.704 70.04 990.797 70.04 989.624 70.04C988.557 69.9333 987.384 69.88 986.104 69.88C984.824 69.7733 983.597 69.72 982.424 69.72C981.357 69.6133 980.504 69.56 979.864 69.56C979.33 69.4533 978.69 69.4 977.944 69.4C977.197 69.4 976.344 69.4 975.384 69.4C975.49 72.7067 975.544 75.9067 975.544 79C975.544 81.9867 975.544 85.24 975.544 88.76C975.437 90.68 975.384 92.6 975.384 94.52C975.384 96.44 975.384 98.3067 975.384 100.12L985.304 99.96C987.864 99.96 990.69 99.8 993.784 99.48C996.877 99.16 999.81 98.52 1002.58 97.56C1005.36 96.6 1007.7 95.2133 1009.62 93.4C1011.65 91.5867 1012.82 89.1867 1013.14 86.2ZM1060.98 68.92L1060.66 94.04H1067.06C1071.43 93.9333 1075.32 93.88 1078.74 93.88C1082.15 93.88 1085.94 93.9333 1090.1 94.04H1090.9C1092.18 94.04 1093.4 94.0933 1094.58 94.2C1095.86 94.2 1097.08 94.2 1098.26 94.2C1099.54 94.3067 1100.76 94.52 1101.94 94.84C1103.11 95.0533 1104.28 95.32 1105.46 95.64C1107.27 96.28 1108.76 97.24 1109.94 98.52C1111 99.9067 1111.54 101.453 1111.54 103.16C1111.54 103.693 1111.54 104.333 1111.54 105.08C1111.54 105.72 1111.43 106.307 1111.22 106.84C1111 108.013 1110.31 109.08 1109.14 110.04C1108.6 110.787 1107.59 111.32 1106.1 111.64C1104.71 112.067 1103.32 112.333 1101.94 112.44C1100.44 112.76 1098.95 112.92 1097.46 112.92H1089.94L1060.34 113.08L1060.02 144.44L1091.86 144.76H1099.38C1100.23 144.76 1101.03 144.76 1101.78 144.76C1102.52 144.76 1103.22 144.813 1103.86 144.92C1104.71 145.133 1105.46 145.293 1106.1 145.4C1106.84 145.4 1107.54 145.507 1108.18 145.72C1109.46 146.147 1110.52 146.733 1111.38 147.48C1112.44 148.547 1113.14 149.667 1113.46 150.84C1113.56 151.373 1113.62 151.96 1113.62 152.6C1113.72 153.133 1113.72 153.72 1113.62 154.36C1113.62 156.067 1113.08 157.613 1112.02 159C1110.74 160.493 1109.24 161.453 1107.54 161.88C1105.3 162.84 1102.84 163.32 1100.18 163.32C1099 163.427 1097.78 163.48 1096.5 163.48C1095.22 163.48 1093.99 163.533 1092.82 163.64H1091.86C1083.54 163.853 1074.9 163.853 1065.94 163.64C1063.8 163.64 1062.1 163.587 1060.82 163.48C1059.54 163.48 1058.36 163.48 1057.3 163.48C1056.34 163.48 1055.32 163.48 1054.26 163.48C1053.19 163.48 1051.8 163.48 1050.1 163.48C1047.64 163.693 1045.62 163.267 1044.02 162.2C1042.84 161.453 1041.94 160.44 1041.3 159.16C1040.98 158.84 1040.82 158.52 1040.82 158.2C1040.71 157.987 1040.6 157.827 1040.5 157.72C1040.39 157.613 1040.28 157.453 1040.18 157.24C1039.96 156.707 1039.8 156.173 1039.7 155.64C1039.59 155 1039.54 154.413 1039.54 153.88C1039.43 153.347 1039.32 152.813 1039.22 152.28C1039.22 151.747 1039.16 151.213 1039.06 150.68V148.12C1039.06 147.693 1039.06 147.267 1039.06 146.84C1039.16 146.413 1039.22 145.987 1039.22 145.56V133.08L1039.54 110.04V88.76C1039.54 84.92 1039.54 81.5067 1039.54 78.52C1039.64 75.5333 1039.75 72.28 1039.86 68.76V67.96C1039.96 66.7867 1040.02 65.72 1040.02 64.76C1040.12 63.6933 1040.18 62.6267 1040.18 61.56C1040.28 59.4267 1040.87 57.3467 1041.94 55.32C1042.36 54.4667 1042.79 53.72 1043.22 53.08C1043.75 52.44 1044.44 51.9067 1045.3 51.48C1046.9 50.52 1048.55 50.04 1050.26 50.04C1051.11 50.04 1051.75 50.0933 1052.18 50.2V50.04C1054.1 50.04 1055.64 50.04 1056.82 50.04C1057.99 50.04 1059.11 50.04 1060.18 50.04C1061.35 50.04 1062.58 50.04 1063.86 50.04C1065.14 49.9333 1066.9 49.88 1069.14 49.88C1073.4 49.7733 1077.46 49.72 1081.3 49.72C1085.14 49.72 1089.08 49.7733 1093.14 49.88H1093.78C1094.95 49.9867 1096.18 50.04 1097.46 50.04C1098.74 50.04 1099.96 50.0933 1101.14 50.2C1102.31 50.2 1103.48 50.36 1104.66 50.68C1105.83 50.8933 1107 51.2133 1108.18 51.64C1109.99 52.1733 1111.48 53.08 1112.66 54.36C1113.62 55.8533 1114.1 57.3467 1114.1 58.84C1114.1 59.48 1114.1 60.12 1114.1 60.76C1114.1 61.2933 1113.99 61.8267 1113.78 62.36C1113.67 63.4267 1113.03 64.5467 1111.86 65.72C1111.43 65.9333 1110.95 66.2 1110.42 66.52C1109.99 66.84 1109.46 67.1067 1108.82 67.32C1108.18 67.5333 1107.48 67.6933 1106.74 67.8C1106.1 67.8 1105.46 67.8533 1104.82 67.96C1103.96 68.1733 1103.16 68.28 1102.42 68.28C1101.78 68.28 1101.03 68.28 1100.18 68.28H1092.98L1060.98 68.44V68.92ZM1201.43 155.96C1201.54 157.027 1201.43 158.04 1201.11 159C1200.9 159.64 1200.58 160.173 1200.15 160.6C1199.83 161.027 1199.4 161.453 1198.87 161.88C1197.91 162.52 1196.74 163.107 1195.35 163.64C1194.5 163.853 1193.64 164.013 1192.79 164.12C1192.04 164.333 1191.24 164.333 1190.39 164.12C1188.68 164.013 1187.19 163.373 1185.91 162.2C1184.1 160.707 1182.6 159.053 1181.43 157.24C1180.9 156.387 1180.31 155.427 1179.67 154.36C1179.03 153.293 1178.44 152.173 1177.91 151L1160.15 117.24C1159.3 117.24 1158.44 117.293 1157.59 117.4C1156.74 117.4 1155.88 117.453 1155.03 117.56C1152.79 117.773 1150.66 117.827 1148.63 117.72C1146.71 117.613 1144.68 117.613 1142.55 117.72H1139.51V146.68C1139.51 147.533 1139.46 148.333 1139.35 149.08C1139.35 149.827 1139.35 150.627 1139.35 151.48C1139.35 152.013 1139.3 152.707 1139.19 153.56C1139.19 154.413 1139.14 155.213 1139.03 155.96C1138.82 157.133 1138.34 158.36 1137.59 159.64C1136.84 160.813 1135.83 161.827 1134.55 162.68C1132.31 164.067 1129.59 164.44 1126.39 163.8C1125 163.48 1123.67 162.947 1122.39 162.2C1121.96 161.88 1121.59 161.507 1121.27 161.08C1120.95 160.547 1120.68 160.013 1120.47 159.48C1120.26 158.947 1120.04 158.413 1119.83 157.88C1119.72 157.24 1119.56 156.653 1119.35 156.12C1119.03 155.053 1118.87 154.04 1118.87 153.08V62.2C1118.87 61.56 1118.87 60.92 1118.87 60.28C1118.98 59.5333 1119.08 58.8933 1119.19 58.36C1119.3 57.1867 1119.67 56.0133 1120.31 54.84C1120.63 53.56 1121.16 52.6533 1121.91 52.12C1122.55 51.48 1123.51 50.9467 1124.79 50.52C1126.18 49.9867 1128.15 49.7733 1130.71 49.88C1135.51 49.9867 1140.26 50.04 1144.95 50.04C1149.64 50.04 1154.34 50.1467 1159.03 50.36C1162.12 50.5733 1165.38 50.9467 1168.79 51.48C1172.31 51.9067 1175.56 52.7067 1178.55 53.88C1180.47 54.6267 1182.23 55.3733 1183.83 56.12C1185.86 57.2933 1187.46 58.4133 1188.63 59.48C1192.36 62.8933 1195.19 67 1197.11 71.8C1199.03 76.6 1199.99 81.4533 1199.99 86.36C1199.99 92.12 1198.6 97.4 1195.83 102.2C1193.16 107 1188.84 110.573 1182.87 112.92C1182.66 113.133 1182.34 113.293 1181.91 113.4C1181.59 113.4 1181.32 113.453 1181.11 113.56L1195.83 143.16L1197.27 145.72C1197.48 146.147 1197.75 146.627 1198.07 147.16C1198.39 147.693 1198.66 148.227 1198.87 148.76C1199.19 149.293 1199.46 149.88 1199.67 150.52C1199.99 151.16 1200.31 151.747 1200.63 152.28C1200.95 153.773 1201.22 155 1201.43 155.96ZM1161.43 99C1163.35 99 1165.16 98.68 1166.87 98.04C1168.68 97.2933 1170.28 96.3333 1171.67 95.16C1173.16 93.9867 1174.39 92.6533 1175.35 91.16C1176.31 89.56 1176.84 87.8533 1176.95 86.04C1177.38 80.7067 1175.99 76.76 1172.79 74.2C1169.59 71.5333 1165.38 70.0933 1160.15 69.88C1157.06 69.6667 1153.64 69.56 1149.91 69.56C1146.28 69.56 1142.82 69.56 1139.51 69.56C1139.62 73.9333 1139.62 78.4133 1139.51 83C1139.51 87.48 1139.51 92.8133 1139.51 99H1161.43Z" fill="#174C58"/>
<defs>
<linearGradient id="paint0_linear_128_33" x1="52.8642" y1="15.4563" x2="127.539" y2="197.022" gradientUnits="userSpaceOnUse">
<stop offset="0.503353" stop-color="#9CCEC1"/>
<stop offset="1" stop-color="#60A19B"/>
</linearGradient>
<linearGradient id="paint1_linear_128_33" x1="129.214" y1="105.029" x2="163.851" y2="151.211" gradientUnits="userSpaceOnUse">
<stop stop-color="white"/>
<stop offset="1" stop-color="#F1DDCD"/>
</linearGradient>
<linearGradient id="paint2_linear_128_33" x1="85.6391" y1="25.5126" x2="123.628" y2="89.2001" gradientUnits="userSpaceOnUse">
<stop offset="0.394991" stop-color="white"/>
<stop offset="1" stop-color="#F0DACB"/>
</linearGradient>
<linearGradient id="paint3_linear_128_33" x1="63.665" y1="125.885" x2="103.144" y2="159.405" gradientUnits="userSpaceOnUse">
<stop stop-color="white"/>
<stop offset="1" stop-color="#EFD8C9"/>
</linearGradient>
</defs>
</svg>
